<svg xmlns="http://www.w3.org/2000/svg" width="28" height="28" viewBox="0 0 28 28">
    <g fill="none" fill-rule="evenodd">
        <g fill="#EBEBEB">
            <g>
                <g>
                    <g>
                        <g>
                            <g>
                                <g>
                                    <g>
                                        <path d="M7.573.27c.448 0 .811.364.811.812 0 .41-.305.75-.7.804l-.111.007H3.245c-.7 0-1.276.532-1.345 1.214l-.007.138v15.146c0 .7.532 1.276 1.214 1.346l.138.006h4.328c.448 0 .811.364.811.812 0 .41-.305.75-.7.803l-.111.008H3.245c-1.582 0-2.875-1.236-2.97-2.793L.27 18.39V3.245C.27 1.663 1.506.37 3.064.275L3.245.27h4.328zm8.055 4.487l.09.079 5.41 5.409c.028.027.054.056.077.087l-.076-.087c.039.04.075.083.104.129.015.021.028.044.04.068l.015.028c.013.029.026.06.037.092l.006.02c.022.074.035.154.035.236 0 .041-.003.082-.009.122l-.007.038c-.006.027-.011.054-.02.08l-.013.038-.03.073-.02.039c-.015.026-.03.05-.046.073l-.014.02-.01.013-.07.078L15.72 16.8c-.317.317-.83.317-1.147 0-.289-.288-.314-.74-.079-1.056l.08-.091 4.022-4.024H7.573c-.448 0-.812-.364-.812-.812 0-.41.305-.75.701-.804l.11-.007h11.023l-4.024-4.025c-.288-.287-.314-.738-.078-1.055l.08-.091c.287-.29.738-.314 1.055-.08z" transform="translate(-1169 -390) translate(1157 77) translate(0 2) translate(0 250) translate(0 50) translate(12 11) translate(3.182 3.182)"/>
                                    </g>
                                </g>
                            </g>
                        </g>
                    </g>
                </g>
            </g>
        </g>
    </g>
</svg>
