<svg xmlns="http://www.w3.org/2000/svg" width="28" height="28" viewBox="0 0 28 28">
    <g fill="none" fill-rule="evenodd">
        <g fill="#EBEBEB">
            <g>
                <g>
                    <g>
                        <g>
                            <g>
                                <path d="M22.354 7.259L20.74 5.644c-.738-.738-1.938-.738-2.676 0L6.051 17.658c-.075.076-.126.176-.144.274l-.807 4.36c-.032.169.022.343.144.464.121.122.295.176.464.144l4.36-.807c.1-.019.2-.07.274-.144L22.354 9.935c.74-.74.74-1.936 0-2.676zM6.264 21.735l.489-2.637 2.149 2.15-2.638.487zm3.708-.894l-2.814-2.814L17.432 7.753l2.814 2.814L9.972 20.841zM21.616 9.197l-.632.632-2.814-2.814.632-.632c.33-.331.869-.331 1.2 0l1.614 1.614c.332.332.332.868 0 1.2z" transform="translate(-1169 -290) translate(1157 77) translate(0 2) translate(0 200) translate(12 11)"/>
                            </g>
                        </g>
                    </g>
                </g>
            </g>
        </g>
    </g>
</svg>
