<svg xmlns="http://www.w3.org/2000/svg" width="40" height="40" viewBox="0 0 40 40">
    <g fill="none" fill-rule="evenodd">
        <g fill-rule="nonzero">
            <g>
                <g>
                    <g>
                        <g>
                            <path fill="#118ACB" d="M7.453 6.562l29.315-4.287C35.076.805 32.91-.002 30.668 0H9.32C6.85 0 4.478.981 2.73 2.73.981 4.477 0 6.848 0 9.32v21.347c0 4.56 3.296 8.45 7.793 9.2L3.924 11.322c-.323-2.285 1.249-4.405 3.529-4.76z" transform="translate(-683.000000, -629.000000) translate(415.000000, 476.000000) translate(0.000000, 123.000000) translate(268.000000, 30.000000) translate(0.010987, 0.000000)"/>
                            <path fill="#FFF" d="M36.768 2.275L7.453 6.562c-2.28.355-3.852 2.475-3.529 4.76l3.87 28.546c.505.083 1.015.127 1.527.132h21.347c2.472 0 4.843-.981 6.592-2.73 1.748-1.748 2.73-4.119 2.729-6.591V9.32c.004-2.705-1.172-5.278-3.22-7.046z" transform="translate(-683.000000, -629.000000) translate(415.000000, 476.000000) translate(0.000000, 123.000000) translate(268.000000, 30.000000) translate(0.010987, 0.000000)"/>
                            <path fill="#B3B3B3" d="M36.768 2.275l-.099.022c2.029 1.774 3.2 4.33 3.221 7.024v21.314c-.008 5.108-4.147 9.247-9.255 9.255H9.31c-.515-.006-1.03-.05-1.539-.132l.011.11c.501.087 1.009.131 1.517.132h21.314c5.17-.004 9.36-4.195 9.365-9.365V9.32c.016-2.706-1.158-5.282-3.21-7.046z" transform="translate(-683.000000, -629.000000) translate(415.000000, 476.000000) translate(0.000000, 123.000000) translate(268.000000, 30.000000) translate(0.010987, 0.000000)"/>
                            <path fill="#118ACB" d="M24.908 13.278c-.18-.19-.431-.294-.693-.285-.384-.014-.734.221-.868.582-.396-.472-.945-.692-1.638-.692-.835 0-1.528.33-2.11.945-.583.66-.836 1.418-.836 2.33-.02.854.278 1.684.836 2.33.522.621 1.3.97 2.11.946.693 0 1.231-.22 1.638-.693.187.396.473.583.868.583.26.001.51-.102.693-.286.187-.176.253-.396.253-.692v-4.474c.033-.154-.077-.407-.253-.594zm-1.968 4.034c-.226.29-.578.453-.945.44-.368.018-.722-.146-.945-.44-.245-.325-.373-.724-.363-1.132 0-.44.11-.802.363-1.088.226-.29.578-.453.945-.44.368-.018.722.147.945.44.239.313.366.695.363 1.088-.033.44-.143.847-.363 1.132zM27.337 19.093c-.179.19-.431.294-.692.286-.26.001-.51-.102-.693-.286-.18-.183-.273-.436-.253-.692v-8.003c-.001-.253.089-.499.253-.692.18-.19.432-.294.693-.286.26-.001.509.102.692.286.18.183.273.436.253.692v8.003c0 .296-.066.516-.253.692zM33.625 13.861c-.616-.66-1.385-.945-2.33-.945-.874-.018-1.717.324-2.331.945-.602.638-.93 1.486-.912 2.363 0 .946.285 1.704.912 2.364.583.615 1.385.945 2.33.945.874.017 1.716-.324 2.33-.945.583-.616.869-1.418.869-2.33.044-.98-.242-1.781-.868-2.397zm-1.341 3.451c-.227.29-.578.453-.946.44-.368.018-.722-.146-.945-.44-.245-.325-.373-.724-.363-1.132 0-.44.11-.802.363-1.088.227-.29.578-.453.945-.44.369-.018.722.147.946.44.238.313.365.695.362 1.088-.033.44-.143.847-.362 1.132z" transform="translate(-683.000000, -629.000000) translate(415.000000, 476.000000) translate(0.000000, 123.000000) translate(268.000000, 30.000000) translate(0.010987, 0.000000)"/>
                            <path fill="#118ACB" d="M17.708 13.135c.66-.868 1.022-1.45 1.022-1.747 0-.693-.44-1.055-1.308-1.055h-4.616c-.363 0-.66.076-.836.252-.183.17-.287.41-.285.66-.008.251.096.493.285.66.187.186.473.252.836.252h3.165l-4.067 5.232c-.252.33-.395.66-.395.913 0 .758.505 1.132 1.528 1.132h4.76c.758 0 1.131-.33 1.131-.945 0-.66-.362-.946-1.132-.946h-3.495l3.407-4.408z" transform="translate(-683.000000, -629.000000) translate(415.000000, 476.000000) translate(0.000000, 123.000000) translate(268.000000, 30.000000) translate(0.010987, 0.000000)"/>
                            <path fill="#39B54A" d="M15.444 24.446h-1.198v2.473h1.198c.363 0 .66-.11.868-.362.218-.236.337-.547.33-.869.017-.323-.103-.638-.33-.868-.209-.264-.494-.374-.868-.374zM21.38 26.733c-.335-.01-.656.137-.869.395-.224.293-.34.654-.33 1.023-.014.369.103.73.33 1.022.205.269.531.417.868.396.335.009.656-.137.869-.396.224-.293.34-.654.33-1.022.012-.37-.105-.73-.33-1.023-.214-.257-.534-.403-.869-.395z" transform="translate(-683.000000, -629.000000) translate(415.000000, 476.000000) translate(0.000000, 123.000000) translate(268.000000, 30.000000) translate(0.010987, 0.000000)"/>
                            <path fill="#39B54A" d="M29.744 20.918H12.542c-.583 0-1.055.472-1.055 1.055v10.069c0 .583.472 1.055 1.055 1.055h13.564c-.137-.12-.217-.291-.22-.473.005-.163.042-.324.11-.472l.66-1.418-1.781-4.441c-.045-.128-.07-.26-.077-.396-.006-.191.09-.371.253-.472.133-.137.315-.216.505-.22.396 0 .66.187.803.582l1.088 3.023 1.165-3.023c.143-.362.396-.582.803-.582.19.002.373.081.505.22.143.142.253.285.253.472 0 .136-.027.27-.077.396l-2.616 6.364c-.054.162-.14.312-.253.44h2.506c.583 0 1.056-.472 1.056-1.055V21.973c.006-.28-.102-.55-.299-.75-.196-.198-.466-.309-.746-.305zm-12.146 6.76c-.55.506-1.23.725-2.033.725h-1.308v1.891c0 .286-.077.506-.253.66-.164.161-.385.252-.616.252-.233.015-.46-.078-.615-.252-.164-.18-.255-.416-.253-.66v-6.54c0-.616.286-.913.912-.913h2.078c.868 0 1.56.253 2.143.759.55.506.836 1.198.836 2-.022.913-.308 1.572-.89 2.078zm6.727 2.583c.009.232-.083.457-.252.616-.158.171-.383.264-.616.252-.364.004-.694-.213-.835-.55-.363.44-.869.66-1.528.66-.74.015-1.446-.304-1.924-.868-.527-.601-.813-1.377-.802-2.176 0-.869.252-1.561.802-2.177.478-.564 1.185-.883 1.924-.868.66 0 1.132.22 1.528.66.186-.363.44-.55.835-.55.233-.015.46.078.616.253.171.157.264.382.252.615v4.133z" transform="translate(-683.000000, -629.000000) translate(415.000000, 476.000000) translate(0.000000, 123.000000) translate(268.000000, 30.000000) translate(0.010987, 0.000000)"/>
                        </g>
                    </g>
                </g>
            </g>
        </g>
    </g>
</svg>
