<svg width="460" height="386" viewBox="0 0 460 386" fill="none" xmlns="http://www.w3.org/2000/svg">
<path d="M460 0.487109H0C5.86348e-05 -12.4917 4.33802e-05 14.5477 4.33802e-05 19.9098L5.86348e-05 32.2905V80.7122V102.205V278.852V302.206V350.627L6.05416e-05 364.307C5.02925e-05 374.376 2.12134e-05 374.376 5.86348e-05 383.726H460C460 393.345 460 369.67 460 364.307V19.9098C460 14.5477 460 11.9683 460 0.487109ZM5.86348e-05 364.304V350.627H19.4135C30.0576 350.627 38.7206 344.141 38.7206 336.167V316.666C38.7206 308.694 30.0576 302.206 19.4135 302.206H5.86348e-05V278.852H1.40544C29.0593 278.852 51.5557 264.978 51.5557 247.923V133.135C51.5557 116.079 29.0593 102.205 1.40544 102.205H5.86348e-05V80.7122H19.4135C30.0576 80.7122 38.7206 74.2257 38.7206 66.2516V46.7512C38.7206 38.777 30.0576 32.2905 19.4135 32.2905H5.86348e-05L4.33802e-05 19.9098H460V32.2905H435.035C424.391 32.2905 415.728 38.777 415.728 46.7512V66.2535C415.728 74.2257 424.391 80.7142 435.035 80.7142H460V102.207H453.043C425.389 102.207 402.893 116.081 402.893 133.137V247.925C402.893 264.98 425.389 278.854 453.043 278.854H460V302.208H435.035C424.391 302.208 415.728 308.694 415.728 316.668V336.171C415.728 344.145 424.391 350.631 435.035 350.631H460V364.307H6.05416e-05L5.86348e-05 364.304ZM322.037 278.852H132.412C101.576 278.852 76.4947 260.065 76.4947 236.971V144.086C76.4947 120.993 101.579 102.205 132.412 102.205H322.037C352.872 102.205 377.954 120.993 377.954 144.086V236.971C377.956 260.065 352.872 278.852 322.037 278.852ZM127.055 316.666V336.169C127.055 344.143 118.392 350.629 107.748 350.629H81.7118C71.0677 350.629 62.4046 344.143 62.4046 336.169V316.666C62.4046 308.694 71.0677 302.206 81.7118 302.206H107.748C118.392 302.206 127.055 308.692 127.055 316.666ZM215.384 316.666V336.169C215.384 344.143 206.723 350.629 196.079 350.629H170.041C159.397 350.629 150.734 344.143 150.734 336.169V316.666C150.734 308.694 159.397 302.206 170.041 302.206H196.079C206.726 302.206 215.384 308.692 215.384 316.666ZM303.718 316.666V336.169C303.718 344.143 295.055 350.629 284.41 350.629H258.372C247.728 350.629 239.068 344.143 239.068 336.169V316.666C239.068 308.694 247.728 302.206 258.372 302.206H284.41C295.055 302.206 303.718 308.692 303.718 316.666ZM392.047 316.666V336.169C392.047 344.143 383.383 350.629 372.739 350.629H346.704C336.059 350.629 327.396 344.143 327.396 336.169V316.666C327.396 308.694 336.059 302.206 346.704 302.206H372.739C383.383 302.206 392.047 308.692 392.047 316.666ZM62.402 66.2516V46.7512C62.402 38.777 71.0651 32.2905 81.7092 32.2905H107.745C118.389 32.2905 127.052 38.777 127.052 46.7512V66.2535C127.052 74.2257 118.389 80.7142 107.745 80.7142H81.7118C71.0651 80.7122 62.402 74.2257 62.402 66.2516ZM150.734 66.2516V46.7512C150.734 38.777 159.397 32.2905 170.041 32.2905H196.079C206.723 32.2905 215.384 38.777 215.384 46.7512V66.2535C215.384 74.2257 206.723 80.7142 196.079 80.7142H170.041C159.397 80.7122 150.734 74.2257 150.734 66.2516ZM239.065 66.2516V46.7512C239.065 38.777 247.725 32.2905 258.369 32.2905H284.408C295.052 32.2905 303.715 38.777 303.715 46.7512V66.2535C303.715 74.2257 295.052 80.7142 284.408 80.7142H258.369C247.725 80.7122 239.065 74.2257 239.065 66.2516ZM392.047 46.7512V66.2535C392.047 74.2257 383.383 80.7142 372.739 80.7142H346.704C336.059 80.7142 327.396 74.2277 327.396 66.2535V46.7512C327.396 38.777 336.059 32.2905 346.704 32.2905H372.739C383.383 32.2886 392.047 38.777 392.047 46.7512Z" fill="#095910"/>
<path d="M170.017 242.092L289.984 192.174L170.017 142.255V242.092Z" fill="white"/>
</svg>
